<?xml version="1.0" standalone="no"?>
<!DOCTYPE svg PUBLIC "-//W3C//DTD SVG 20010904//EN"
 "http://www.w3.org/TR/2001/REC-SVG-20010904/DTD/svg10.dtd">
<svg version="1.0" xmlns="http://www.w3.org/2000/svg"
 width="286.000000pt" height="286.000000pt" viewBox="0 0 286.000000 286.000000"
 preserveAspectRatio="xMidYMid meet">
<metadata>
Created by potrace 1.14, written by Peter Selinger 2001-2017
</metadata>
<g transform="translate(0.000000,286.000000) scale(0.100000,-0.100000)"
fill="#000000" stroke="none">
<path d="M0 1430 l0 -1070 1430 0 1430 0 0 1070 0 1070 -1430 0 -1430 0 0
-1070z m1468 987 c6 -7 13 -64 14 -128 l3 -114 50 -9 c237 -40 397 -125 551
-290 161 -171 237 -377 236 -634 l-1 -123 62 -28 c34 -16 91 -42 127 -58 36
-17 90 -40 120 -52 100 -40 125 -55 128 -78 6 -41 -54 -143 -84 -143 -6 0 -14
-10 -18 -23 -12 -48 -108 -124 -179 -141 -31 -7 -154 11 -163 25 -3 5 -13 9
-22 9 -9 0 -44 25 -77 55 -33 30 -65 55 -70 55 -6 0 -30 -20 -54 -44 -37 -38
-93 -70 -226 -132 -31 -14 -122 -38 -215 -56 -114 -22 -435 -13 -535 15 -27 8
-72 19 -98 26 -73 17 -185 75 -251 128 -32 26 -64 52 -71 57 -8 6 -27 -6 -57
-35 -59 -58 -175 -109 -248 -109 -58 0 -151 52 -190 106 -19 27 -49 64 -67 83
-36 39 -70 128 -54 144 5 5 50 27 98 47 48 21 131 56 183 80 52 23 110 48 128
56 l32 14 -4 93 c-2 50 0 112 5 137 4 25 13 75 19 112 7 38 25 100 41 139 16
39 29 76 29 83 0 6 16 31 35 55 19 24 35 49 35 55 0 18 151 169 205 206 95 63
140 86 215 109 41 12 86 27 99 32 12 5 50 12 82 16 40 4 63 11 68 22 5 9 7 60
4 115 -3 83 -1 102 13 117 20 22 86 26 102 6z"/>
<path d="M988 1264 c-13 -12 2 -24 29 -24 24 0 93 -37 93 -50 0 -3 -29 -5 -63
-5 -39 0 -70 -5 -80 -14 -27 -22 -10 -30 33 -15 36 12 47 12 91 -2 27 -9 52
-14 55 -12 10 10 -15 54 -48 86 -33 32 -95 52 -110 36z"/>
<path d="M1774 1256 c-43 -19 -104 -103 -87 -120 3 -3 15 1 27 9 24 18 108 20
138 4 14 -8 23 -8 31 0 15 15 -58 44 -92 38 -14 -3 -33 -7 -41 -9 -8 -2 -17 1
-19 7 -6 14 41 46 79 54 39 8 53 31 18 31 -12 -1 -37 -7 -54 -14z"/>
<path d="M530 838 c0 -7 7 -22 15 -32 12 -16 18 -17 27 -8 9 9 9 12 0 12 -7 0
-12 9 -12 20 0 11 -7 20 -15 20 -8 0 -15 -6 -15 -12z"/>
<path d="M585 840 c-3 -5 -1 -10 4 -10 6 0 11 5 11 10 0 6 -2 10 -4 10 -3 0
-8 -4 -11 -10z"/>
<path d="M2245 839 l-20 -8 20 -2 c43 -4 60 -3 65 5 7 12 -40 16 -65 5z"/>
<path d="M1615 746 c-68 -46 -275 -50 -368 -6 -15 7 -30 11 -33 7 -10 -10 6
-27 26 -27 10 0 21 -4 24 -9 5 -8 45 -19 101 -28 53 -8 103 -8 130 0 67 22
111 41 130 59 23 21 18 24 -10 4z"/>
</g>
</svg>
